name rise44.9368peak50.754fall52.0217.mot
datacolumns 19
datarows 14
range 0.81667100000000 0.83833800000000
endheader
time	ground_force1_vx	ground_force1_vy	ground_force1_vz	ground_force1_px	ground_force1_py	ground_force1_pz	ground_force2_vx	ground_force2_vy	ground_force2_vz	ground_force2_px	ground_force2_py	ground_force2_pz	ground_torque1_x	ground_torque1_y	ground_torque1_z	ground_torque2_x	ground_torque2_y	ground_torque2_z	
0.81667100000000	-9.57753700000000	42.13458900000000	-7.66355100000000	0.39284500000000	0.00000000000000	0.07819800000000	-54.18585300000000	799.07384500000001	-61.20650300000000	0.17789100000000	0.00000000000000	-0.11982300000000	0.00000000000000	-5.86531200000000	0.00000000000000	0.00000000000000	-33.37855800000000	0.00000000000000	
0.81833600000000	-10.53104200000000	49.22508600000000	-8.56609000000000	0.39650600000000	0.00000000000000	0.07893900000000	-55.00741300000000	796.85889699999996	-60.81810700000000	0.17685900000000	0.00000000000000	-0.11971500000000	0.00000000000000	-6.60091600000000	0.00000000000000	0.00000000000000	-33.30260000000000	0.00000000000000	
0.81999800000000	-11.31124600000000	56.36904600000000	-9.36775100000000	0.39975400000000	0.00000000000000	0.07963200000000	-55.83067300000000	794.49060399999996	-60.40922700000000	0.17582400000000	0.00000000000000	-0.11960500000000	0.00000000000000	-7.26745600000000	0.00000000000000	0.00000000000000	-33.22315900000000	0.00000000000000	
0.82167000000000	-11.89234700000000	63.47384900000000	-10.04822600000000	0.40265500000000	0.00000000000000	0.08028200000000	-56.65471300000000	791.96479499999998	-59.97983800000000	0.17478500000000	0.00000000000000	-0.11949300000000	0.00000000000000	-7.84876700000000	0.00000000000000	0.00000000000000	-33.14013800000000	0.00000000000000	
0.82333500000000	-12.25896500000000	70.47141400000000	-10.59444600000000	0.40525900000000	0.00000000000000	0.08089300000000	-57.47854600000000	789.27732000000003	-59.52993300000000	0.17374400000000	0.00000000000000	-0.11937900000000	0.00000000000000	-8.33423800000000	0.00000000000000	0.00000000000000	-33.05342800000000	0.00000000000000	
0.82500400000000	-12.40599600000000	77.32016299999999	-11.00061600000000	0.40761100000000	0.00000000000000	0.08147100000000	-58.30112500000000	786.42406100000005	-59.05953000000000	0.17269900000000	0.00000000000000	-0.11926200000000	0.00000000000000	-8.71888000000000	0.00000000000000	0.00000000000000	-32.96290800000000	0.00000000000000	
0.82666300000000	-12.33766000000000	84.00447300000000	-11.26764400000000	0.40974600000000	0.00000000000000	0.08201700000000	-59.12133300000000	783.40095399999996	-58.56866900000000	0.17165100000000	0.00000000000000	-0.11914400000000	0.00000000000000	-9.00292300000000	0.00000000000000	0.00000000000000	-32.86844900000000	0.00000000000000	
0.82833800000000	-12.06594200000000	90.53207399999999	-11.40212500000000	0.41169600000000	0.00000000000000	0.08253600000000	-59.93799500000000	780.20399899999995	-58.05741600000000	0.17060100000000	0.00000000000000	-0.11902400000000	0.00000000000000	-9.19104800000000	0.00000000000000	0.00000000000000	-32.76991200000000	0.00000000000000	
0.83000100000000	-11.60866300000000	96.92998000000000	-11.41502400000000	0.41348500000000	0.00000000000000	0.08302900000000	-60.74987200000000	776.82927900000004	-57.52585900000000	0.16954900000000	0.00000000000000	-0.11890200000000	0.00000000000000	-9.29139200000000	0.00000000000000	0.00000000000000	-32.66714600000000	0.00000000000000	
0.83166300000000	-10.98741600000000	103.23952000000000	-11.32023700000000	0.41513600000000	0.00000000000000	0.08349900000000	-61.55566600000000	773.27297999999996	-56.97411500000000	0.16849500000000	0.00000000000000	-0.11877800000000	0.00000000000000	-9.31443000000000	0.00000000000000	0.00000000000000	-32.55999100000000	0.00000000000000	
0.83333500000000	-10.22553700000000	109.51105900000000	-11.13316000000000	0.41666600000000	0.00000000000000	0.08394700000000	-62.35401700000000	769.53139999999996	-56.40232600000000	0.16744000000000	0.00000000000000	-0.11865100000000	0.00000000000000	-9.27186900000000	0.00000000000000	0.00000000000000	-32.44828000000000	0.00000000000000	
0.83500000000000	-9.34629300000000	115.79887700000000	-10.86937400000000	0.41809200000000	0.00000000000000	0.08437600000000	-63.14351500000000	765.60097800000005	-55.81066300000000	0.16638400000000	0.00000000000000	-0.11852300000000	0.00000000000000	-9.17562500000000	0.00000000000000	0.00000000000000	-32.33183300000000	0.00000000000000	
0.83666400000000	-8.37138500000000	122.15660200000001	-10.54355600000000	0.41942600000000	0.00000000000000	0.08478500000000	-63.92269000000000	761.47830299999998	-55.19932400000000	0.16532700000000	0.00000000000000	-0.11839200000000	0.00000000000000	-9.03696400000000	0.00000000000000	0.00000000000000	-32.21046600000000	0.00000000000000	
0.83833800000000	-7.31982200000000	128.63343800000001	-10.16862900000000	0.42067900000000	0.00000000000000	0.08517700000000	-64.69002500000001	757.16013799999996	-54.56853700000000	0.16427000000000	0.00000000000000	-0.11826000000000	0.00000000000000	-8.86583300000000	0.00000000000000	0.00000000000000	-32.08398500000000	0.00000000000000	
